<svg width="25" height="25" viewBox="0 0 25 25" fill="none" xmlns="http://www.w3.org/2000/svg">
<path d="M19.3028 18.4671C19.3725 18.5368 19.4278 18.6195 19.4655 18.7106C19.5032 18.8016 19.5226 18.8992 19.5226 18.9977C19.5226 19.0963 19.5032 19.1939 19.4655 19.2849C19.4278 19.3759 19.3725 19.4587 19.3028 19.5284C19.2331 19.598 19.1504 19.6533 19.0594 19.691C18.9683 19.7287 18.8708 19.7481 18.7722 19.7481C18.6737 19.7481 18.5761 19.7287 18.485 19.691C18.394 19.6533 18.3113 19.598 18.2416 19.5284L12.0222 13.308L5.80283 19.5284C5.6621 19.6691 5.47123 19.7481 5.27221 19.7481C5.07318 19.7481 4.88231 19.6691 4.74158 19.5284C4.60085 19.3876 4.52179 19.1968 4.52179 18.9977C4.52179 18.7987 4.60085 18.6078 4.74158 18.4671L10.9619 12.2477L4.74158 6.02836C4.60085 5.88763 4.52179 5.69675 4.52179 5.49773C4.52179 5.29871 4.60085 5.10784 4.74158 4.96711C4.88231 4.82638 5.07318 4.74731 5.27221 4.74731C5.47123 4.74731 5.6621 4.82638 5.80283 4.96711L12.0222 11.1874L18.2416 4.96711C18.3823 4.82638 18.5732 4.74731 18.7722 4.74731C18.9712 4.74731 19.1621 4.82638 19.3028 4.96711C19.4436 5.10784 19.5226 5.29871 19.5226 5.49773C19.5226 5.69675 19.4436 5.88763 19.3028 6.02836L13.0825 12.2477L19.3028 18.4671Z" fill="#212529"/>
</svg>
