<svg width="927" height="500" viewBox="0 0 927 500" fill="none" xmlns="http://www.w3.org/2000/svg">
<path d="M33.6981 456.076H27.9623C27.9623 453.34 27.4151 451.642 26.3019 451C25.2076 450.34 22.3585 450.019 17.7925 450.019C13.5283 450.019 10.8302 450.359 9.69811 451.076C8.54717 451.774 7.98114 453.434 7.98114 456.094C7.98114 460.094 9.90566 462.189 13.7547 462.396L18.3774 462.642L24.2264 462.943C31.3019 463.302 34.8491 467 34.8491 474.076C34.8491 478.453 33.6792 481.472 31.3208 483.113C28.9811 484.755 24.6792 485.566 18.434 485.566C12.0189 485.566 7.60377 484.792 5.18868 483.226C2.77358 481.679 1.56604 478.811 1.56604 474.66L1.60377 472.528H7.54717L7.5849 474.377C7.5849 476.943 8.24528 478.642 9.54716 479.509C10.8491 480.359 13.434 480.792 17.2642 480.792C21.9811 480.792 25.0943 480.34 26.566 479.434C28.0566 478.547 28.7925 476.66 28.7925 473.792C28.7925 469.679 26.9245 467.623 23.1887 467.623C14.4906 467.623 8.77358 466.887 6.01886 465.396C3.28302 463.925 1.90566 460.868 1.90566 456.226C1.90566 451.849 3 448.906 5.15094 447.453C7.32075 445.981 11.6415 445.264 18.0943 445.264C28.4528 445.264 33.6415 448.396 33.6415 454.642V456.076H33.6981ZM59.2453 445.264C66.4717 445.264 71.1509 446.528 73.3208 449.038C75.4717 451.528 76.5472 457 76.5472 465.396C76.5472 473.811 75.4717 479.264 73.3208 481.774C71.1509 484.283 66.4717 485.547 59.2453 485.547C52.0377 485.547 47.3585 484.283 45.1887 481.774C43.0377 479.264 41.9623 473.811 41.9623 465.396C41.9623 457 43.0377 451.547 45.1887 449.038C47.3585 446.528 52.0377 445.264 59.2453 445.264ZM59.2453 450.019C54.1698 450.019 51.0189 450.849 49.8113 452.491C48.6038 454.132 48 458.434 48 465.396C48 472.359 48.6038 476.66 49.8113 478.321C51.0189 479.962 54.1698 480.792 59.2453 480.792C64.3396 480.792 67.4906 479.962 68.717 478.321C69.9245 476.679 70.5283 472.377 70.5283 465.396C70.5283 458.434 69.9245 454.132 68.717 452.491C67.4906 450.849 64.3396 450.019 59.2453 450.019ZM112.34 470.849H118.075L118.113 472.981C118.113 481.359 112.623 485.547 101.66 485.547C94.6226 485.547 89.9623 484.226 87.717 481.585C85.4528 478.925 84.3208 473.491 84.3208 465.208C84.3208 457.453 85.4717 452.208 87.7924 449.415C90.0943 446.642 94.4906 445.264 100.943 445.264C107.302 445.264 111.623 446.208 113.943 448.076C116.264 449.943 117.415 453.453 117.415 458.604H111.679V457.585C111.679 454.547 110.925 452.547 109.434 451.528C107.925 450.528 104.943 450.019 100.472 450.019C96.1698 450.019 93.3962 450.962 92.1698 452.887C90.9434 454.792 90.3208 459.075 90.3208 465.736C90.3208 472.226 91.0189 476.358 92.434 478.132C93.8302 479.906 97.1132 480.792 102.264 480.792C106.642 480.792 109.396 480.208 110.566 479.038C111.755 477.887 112.34 475.151 112.34 470.849ZM131.811 429.113V435.547H126.075V429.113H131.811ZM131.811 445.849V484.962H126.075V445.849H131.811ZM169.075 473.132H174.925L174.962 474.566C174.962 478.623 173.736 481.472 171.264 483.094C168.792 484.717 164.472 485.528 158.283 485.528C151.075 485.528 146.358 484.208 144.113 481.585C141.868 478.962 140.736 473.434 140.736 465C140.736 457.208 141.868 451.962 144.132 449.283C146.396 446.623 150.83 445.283 157.434 445.283C164.642 445.283 169.358 446.434 171.604 448.755C173.83 451.075 174.962 455.943 174.962 463.396V466.472H146.811C146.811 472.642 147.472 476.566 148.792 478.264C150.113 479.962 153.208 480.811 158.075 480.811C162.679 480.811 165.679 480.396 167.057 479.604C168.434 478.792 169.132 477.057 169.132 474.377V473.132H169.075ZM169.075 462L169.038 460.151C169.038 455.925 168.34 453.189 166.943 451.906C165.566 450.642 162.566 450 157.943 450C153.302 450 150.283 450.736 148.925 452.226C147.547 453.698 146.849 456.962 146.849 461.981H169.075V462ZM216.66 429.113V484.962H210.925L211.226 479.887L211.057 479.849C209.264 483.642 205.057 485.528 198.491 485.528C192.491 485.528 188.396 484.057 186.208 481.151C184.019 478.226 182.906 472.792 182.906 464.83C182.906 457.491 184 452.396 186.208 449.547C188.434 446.698 192.377 445.264 198.075 445.264C205.208 445.264 209.453 447.113 210.792 450.793L210.925 450.717V429.113H216.66ZM199.434 450.019C195.208 450.019 192.396 451 191 452.943C189.623 454.906 188.925 458.849 188.925 464.792C188.925 471.321 189.604 475.623 191 477.698C192.377 479.755 195.226 480.792 199.585 480.792C204.283 480.792 207.358 479.755 208.792 477.698C210.208 475.623 210.925 471.17 210.925 464.245C210.925 458.66 210.151 454.887 208.585 452.925C206.962 451 203.925 450.019 199.434 450.019ZM232.698 456.811H227.019C227.019 452.264 228.057 449.208 230.113 447.623C232.17 446.057 236.208 445.283 242.208 445.283C248.717 445.283 253.132 446.245 255.415 448.17C257.698 450.075 258.849 453.736 258.849 459.151V484.981H253.113L253.566 480.755L253.434 480.717C251.264 483.943 246.83 485.547 240.132 485.547C230.264 485.547 225.321 481.585 225.321 473.642C225.321 468.943 226.415 465.66 228.623 463.868C230.83 462.057 234.83 461.17 240.623 461.17C247.491 461.17 251.623 462.528 252.962 465.226L253.094 465.189V460.434C253.094 455.943 252.472 453.057 251.245 451.736C250.019 450.415 247.34 449.755 243.189 449.755C236.151 449.755 232.623 451.736 232.623 455.698C232.66 455.849 232.679 456.226 232.698 456.811ZM241.925 465.604C237.528 465.604 234.679 466.057 233.34 467C232.019 467.925 231.358 469.925 231.358 472.962C231.358 476.132 232.019 478.226 233.321 479.245C234.623 480.264 237.283 480.774 241.302 480.774C249.377 480.774 253.415 478.321 253.415 473.415C253.415 470.321 252.642 468.245 251.075 467.189C249.491 466.132 246.434 465.604 241.925 465.604ZM302.151 429.113V484.962H296.415L296.717 479.887L296.547 479.849C294.755 483.642 290.547 485.528 283.981 485.528C277.981 485.528 273.887 484.057 271.698 481.151C269.509 478.226 268.396 472.792 268.396 464.83C268.396 457.491 269.491 452.396 271.698 449.547C273.925 446.698 277.868 445.264 283.566 445.264C290.698 445.264 294.943 447.113 296.283 450.793L296.415 450.717V429.113H302.151ZM284.925 450.019C280.698 450.019 277.887 451 276.491 452.943C275.113 454.906 274.415 458.849 274.415 464.792C274.415 471.321 275.094 475.623 276.491 477.698C277.868 479.755 280.717 480.792 285.075 480.792C289.774 480.792 292.849 479.755 294.283 477.698C295.698 475.623 296.415 471.17 296.415 464.245C296.415 458.66 295.642 454.887 294.075 452.925C292.453 451 289.415 450.019 284.925 450.019ZM339.434 473.132H345.283L345.321 474.566C345.321 478.623 344.094 481.472 341.623 483.094C339.151 484.717 334.83 485.528 328.641 485.528C321.434 485.528 316.717 484.208 314.472 481.585C312.226 478.962 311.094 473.434 311.094 465C311.094 457.208 312.226 451.962 314.491 449.283C316.755 446.623 321.189 445.283 327.792 445.283C335 445.283 339.717 446.434 341.962 448.755C344.189 451.075 345.321 455.943 345.321 463.396V466.472H317.17C317.17 472.642 317.83 476.566 319.151 478.264C320.472 479.962 323.566 480.811 328.415 480.811C333.019 480.811 336.019 480.396 337.396 479.604C338.774 478.792 339.472 477.057 339.472 474.377V473.132H339.434ZM339.434 462L339.396 460.151C339.396 455.925 338.698 453.189 337.302 451.906C335.925 450.642 332.925 450 328.302 450C323.66 450 320.642 450.736 319.283 452.226C317.906 453.698 317.208 456.962 317.208 461.981H339.434V462ZM407.962 429.113V484.962H402.226L402.528 479.887L402.358 479.849C400.566 483.642 396.358 485.528 389.792 485.528C383.792 485.528 379.698 484.057 377.509 481.151C375.321 478.226 374.208 472.792 374.208 464.83C374.208 457.491 375.302 452.396 377.509 449.547C379.736 446.698 383.679 445.264 389.377 445.264C396.509 445.264 400.755 447.113 402.094 450.793L402.226 450.717V429.113H407.962ZM390.755 450.019C386.528 450.019 383.717 451 382.321 452.943C380.943 454.906 380.245 458.849 380.245 464.792C380.245 471.321 380.925 475.623 382.321 477.698C383.698 479.755 386.547 480.792 390.906 480.792C395.604 480.792 398.679 479.755 400.113 477.698C401.528 475.623 402.245 471.17 402.245 464.245C402.245 458.66 401.472 454.887 399.906 452.925C398.283 451 395.245 450.019 390.755 450.019ZM445.264 473.132H451.113L451.151 474.566C451.151 478.623 449.925 481.472 447.453 483.094C444.981 484.717 440.66 485.528 434.472 485.528C427.264 485.528 422.547 484.208 420.302 481.585C418.057 478.962 416.925 473.434 416.925 465C416.925 457.208 418.057 451.962 420.321 449.283C422.585 446.623 427.019 445.283 433.623 445.283C440.83 445.283 445.547 446.434 447.792 448.755C450.019 451.075 451.151 455.943 451.151 463.396V466.472H423C423 472.642 423.66 476.566 424.981 478.264C426.302 479.962 429.396 480.811 434.264 480.811C438.868 480.811 441.868 480.396 443.245 479.604C444.623 478.792 445.321 477.057 445.321 474.377V473.132H445.264ZM445.264 462L445.226 460.151C445.226 455.925 444.528 453.189 443.132 451.906C441.755 450.642 438.755 450 434.132 450C429.491 450 426.472 450.736 425.113 452.226C423.736 453.698 423.038 456.962 423.038 461.981H445.264V462ZM513.019 445.849V484.962H507.302L507.698 479.849L507.585 479.717C505.585 483.585 501.321 485.528 494.811 485.528C485.66 485.528 481.094 480.981 481.094 471.849V445.849H486.83V471.868C486.83 475.415 487.415 477.792 488.585 479C489.755 480.208 492.057 480.811 495.509 480.811C500 480.811 503.094 479.925 504.792 478.132C506.472 476.34 507.302 473.057 507.302 468.302V445.849H513.019ZM553.943 456.076H548.207C548.207 453.34 547.66 451.642 546.547 451C545.453 450.34 542.604 450.019 538.019 450.019C533.755 450.019 531.057 450.359 529.924 451.076C528.774 451.774 528.208 453.434 528.208 456.094C528.208 460.094 530.132 462.189 533.981 462.396L538.604 462.642L544.453 462.943C551.528 463.302 555.075 467 555.075 474.076C555.075 478.453 553.906 481.472 551.547 483.113C549.208 484.755 544.906 485.566 538.66 485.566C532.245 485.566 527.83 484.792 525.415 483.226C523 481.679 521.792 478.811 521.792 474.66L521.83 472.528H527.774L527.811 474.377C527.811 476.943 528.472 478.642 529.774 479.509C531.075 480.359 533.66 480.792 537.491 480.792C542.207 480.792 545.321 480.34 546.792 479.434C548.283 478.547 549.019 476.66 549.019 473.792C549.019 469.679 547.151 467.623 543.415 467.623C534.717 467.623 529 466.887 526.245 465.396C523.509 463.925 522.132 460.868 522.132 456.226C522.132 451.849 523.226 448.906 525.377 447.453C527.547 445.981 531.868 445.264 538.321 445.264C548.679 445.264 553.868 448.396 553.868 454.642V456.076H553.943ZM595.245 445.849V484.962H589.528L589.925 479.849L589.811 479.717C587.811 483.585 583.547 485.528 577.038 485.528C567.887 485.528 563.321 480.981 563.321 471.849V445.849H569.057V471.868C569.057 475.415 569.642 477.792 570.811 479C571.981 480.208 574.283 480.811 577.736 480.811C582.226 480.811 585.321 479.925 587 478.132C588.679 476.34 589.509 473.057 589.509 468.302V445.849H595.245ZM611.792 456.811H606.113C606.113 452.264 607.151 449.208 609.208 447.623C611.264 446.057 615.302 445.283 621.302 445.283C627.811 445.283 632.226 446.245 634.509 448.17C636.792 450.075 637.943 453.736 637.943 459.151V484.981H632.226L632.679 480.755L632.547 480.717C630.377 483.943 625.943 485.547 619.245 485.547C609.377 485.547 604.434 481.585 604.434 473.642C604.434 468.943 605.547 465.66 607.736 463.868C609.943 462.057 613.943 461.17 619.736 461.17C626.604 461.17 630.736 462.528 632.075 465.226L632.208 465.189V460.434C632.208 455.943 631.585 453.057 630.359 451.736C629.132 450.415 626.453 449.755 622.302 449.755C615.264 449.755 611.736 451.736 611.736 455.698C611.755 455.849 611.774 456.226 611.792 456.811ZM621.019 465.604C616.623 465.604 613.774 466.057 612.434 467C611.113 467.925 610.453 469.925 610.453 472.962C610.453 476.132 611.113 478.226 612.415 479.245C613.717 480.264 616.377 480.774 620.396 480.774C628.472 480.774 632.509 478.321 632.509 473.415C632.509 470.321 631.736 468.245 630.17 467.189C628.585 466.132 625.547 465.604 621.019 465.604ZM628.491 429.679L631.434 433.679L619.358 441.075L617.396 438.038L628.491 429.679ZM649.113 445.849H654.849L654.283 450.34L654.415 450.472C656.679 446.792 660.415 444.962 665.623 444.962C672.811 444.962 676.415 448.679 676.415 456.094L676.377 458.792H670.736L670.849 457.811C670.924 456.774 670.981 456.075 670.981 455.717C670.981 451.717 668.811 449.717 664.434 449.717C658.057 449.717 654.868 453.66 654.868 461.528V484.981H649.132V445.849H649.113ZM687.66 429.113V435.547H681.943V429.113H687.66ZM687.66 445.849V484.962H681.943V445.849H687.66ZM713.868 445.264C721.094 445.264 725.774 446.528 727.943 449.038C730.094 451.528 731.17 457 731.17 465.396C731.17 473.811 730.094 479.264 727.943 481.774C725.774 484.283 721.094 485.547 713.868 485.547C706.66 485.547 701.981 484.283 699.811 481.774C697.66 479.264 696.585 473.811 696.585 465.396C696.585 457 697.66 451.547 699.811 449.038C701.981 446.528 706.66 445.264 713.868 445.264ZM713.868 450.019C708.792 450.019 705.642 450.849 704.434 452.491C703.226 454.132 702.623 458.434 702.623 465.396C702.623 472.359 703.226 476.66 704.434 478.321C705.642 479.962 708.792 480.792 713.868 480.792C718.962 480.792 722.113 479.962 723.34 478.321C724.547 476.679 725.151 472.377 725.151 465.396C725.151 458.434 724.547 454.132 723.34 452.491C722.132 450.849 718.962 450.019 713.868 450.019ZM770.415 456.076H764.679C764.679 453.34 764.132 451.642 763.019 451C761.925 450.34 759.075 450.019 754.491 450.019C750.226 450.019 747.528 450.359 746.396 451.076C745.245 451.774 744.679 453.434 744.679 456.094C744.679 460.094 746.604 462.189 750.453 462.396L755.075 462.642L760.925 462.943C768 463.302 771.547 467 771.547 474.076C771.547 478.453 770.377 481.472 768.019 483.113C765.679 484.755 761.377 485.566 755.132 485.566C748.717 485.566 744.302 484.792 741.887 483.226C739.472 481.679 738.264 478.811 738.264 474.66L738.302 472.528H744.245L744.283 474.377C744.283 476.943 744.943 478.642 746.245 479.509C747.547 480.359 750.132 480.792 753.962 480.792C758.679 480.792 761.792 480.34 763.264 479.434C764.755 478.547 765.491 476.66 765.491 473.792C765.491 469.679 763.623 467.623 759.887 467.623C751.189 467.623 745.472 466.887 742.717 465.396C739.981 463.925 738.604 460.868 738.604 456.226C738.604 451.849 739.698 448.906 741.849 447.453C744.019 445.981 748.321 445.264 754.792 445.264C765.151 445.264 770.34 448.396 770.34 454.642V456.076H770.415ZM806.094 429.113V435.547H800.358V429.113H806.094ZM806.094 445.849V488.566V490.245C806.094 496.717 803.415 499.943 798.038 499.943C797.264 499.943 796.34 499.849 795.302 499.66V495.604C795.623 495.547 795.849 495.528 795.962 495.528L796.698 495.491L799.057 494.717C799.943 493.981 800.377 491.943 800.377 488.585V445.849H806.094ZM822.302 456.811H816.623C816.623 452.264 817.66 449.208 819.717 447.623C821.774 446.057 825.811 445.283 831.811 445.283C838.321 445.283 842.736 446.245 845.019 448.17C847.302 450.075 848.453 453.736 848.453 459.151V484.981H842.717L843.17 480.755L843.038 480.717C840.868 483.943 836.434 485.547 829.736 485.547C819.868 485.547 814.925 481.585 814.925 473.642C814.925 468.943 816.038 465.66 818.226 463.868C820.434 462.057 824.434 461.17 830.226 461.17C837.094 461.17 841.226 462.528 842.566 465.226L842.698 465.189V460.434C842.698 455.943 842.075 453.057 840.849 451.736C839.623 450.415 836.943 449.755 832.792 449.755C825.755 449.755 822.226 451.736 822.226 455.698C822.245 455.849 822.264 456.226 822.302 456.811ZM831.509 465.604C827.113 465.604 824.264 466.057 822.925 467C821.604 467.925 820.943 469.925 820.943 472.962C820.943 476.132 821.604 478.226 822.906 479.245C824.208 480.264 826.868 480.774 830.887 480.774C838.962 480.774 843 478.321 843 473.415C843 470.321 842.226 468.245 840.66 467.189C839.094 466.132 836.038 465.604 831.509 465.604ZM888.019 445.849L874.925 484.962H866.698L853.736 445.849H859.623L866.528 467.132L868.698 473.792L869.717 477.151L870.774 480.509H870.943L871.924 477.189L872.925 473.83L875 467.189L881.642 445.83H888.019V445.849ZM898.736 456.811H893.057C893.057 452.264 894.094 449.208 896.151 447.623C898.208 446.057 902.245 445.283 908.245 445.283C914.755 445.283 919.17 446.245 921.453 448.17C923.736 450.075 924.887 453.736 924.887 459.151V484.981H919.17L919.623 480.755L919.491 480.717C917.321 483.943 912.887 485.547 906.189 485.547C896.321 485.547 891.377 481.585 891.377 473.642C891.377 468.943 892.472 465.66 894.679 463.868C896.887 462.057 900.887 461.17 906.679 461.17C913.547 461.17 917.679 462.528 919.019 465.226L919.151 465.189V460.434C919.151 455.943 918.528 453.057 917.302 451.736C916.075 450.415 913.396 449.755 909.245 449.755C902.208 449.755 898.679 451.736 898.679 455.698C898.698 455.849 898.717 456.226 898.736 456.811ZM907.962 465.604C903.566 465.604 900.717 466.057 899.377 467C898.057 467.925 897.396 469.925 897.396 472.962C897.396 476.132 898.057 478.226 899.358 479.245C900.66 480.264 903.321 480.774 907.34 480.774C915.415 480.774 919.453 478.321 919.453 473.415C919.453 470.321 918.679 468.245 917.113 467.189C915.528 466.132 912.472 465.604 907.962 465.604Z" fill="black"/>
<path d="M61.566 313.698C50.0377 312.83 43.717 312.396 43.717 299.34C43.717 290.208 45.6793 285.415 69.1698 285.415C86.566 285.415 93.5283 285.415 93.5283 302.17H135.302V295.434C135.302 250.396 104.849 249.755 69.1698 249.755C26.5283 249.755 0.207548 252.793 0.207548 299.585C0.207548 346.377 23.6981 346.151 63.9434 348.981L73.5094 349.642C93.9623 350.943 96.3585 350.736 96.3585 364.868C96.3585 378.566 89.6227 379.887 69.1698 379.887C47.8491 379.887 41.7547 378.151 41.7547 361.17H0C0 414.736 27.6226 415.604 69.1887 415.604C140.981 415.604 139.906 389.019 139.906 362.038C139.906 324.623 127.943 318.528 79.6415 315.038L61.566 313.698ZM456.321 312.226H467.755C474.528 312.226 475.057 315.906 475.057 326.698C475.057 337.359 474.981 343.453 468.453 343.453H456.321V312.226ZM455.981 368.811H468.755C482.585 368.811 488.453 364.755 488.453 326.679C488.453 298.774 484.132 286.83 468.755 286.83H456.321V251.019H412.811V356.981C412.811 376.132 406.509 377.642 388.019 377.642C369.736 377.642 359.302 377.415 359.302 358.925V251.019H315.792V359.793C315.792 398.962 322.755 415.528 388.019 415.528C432.377 415.547 453.189 405.038 455.981 368.811ZM225.981 415.547C270.151 415.547 301.472 405.943 301.472 355.679V309.547C301.472 259.283 270.151 249.717 225.981 249.717C181.811 249.717 150.491 259.283 150.491 309.547V355.679C150.491 405.943 181.811 415.547 225.981 415.547ZM225.981 377.66C203.359 377.66 195.962 375.264 195.302 350.906V314.132C195.962 289.981 203.359 287.585 225.981 287.585C248.604 287.585 256.66 289.981 256.66 314.132V350.906C256.66 375.264 248.604 377.66 225.981 377.66Z" fill="#C00D0D"/>
<path d="M578.849 245.396H541.566V351.943C541.566 374.604 532.887 379.906 520.604 379.906C514.679 379.906 509.377 379.057 505.132 377.792L501.491 408.302C507.245 410.453 516.566 411.509 524.396 411.509C555.736 411.509 578.83 399.189 578.83 351.528V245.396H578.849ZM697.038 339.019C697.038 312.547 687.302 287.547 647.906 287.547C627.359 287.547 611.906 293.472 604.264 297.717L611.038 321.868C618.66 317.208 629.245 313.811 640.472 313.811C655.509 313.811 659.528 320.377 659.528 329.491C624.377 329.698 596.189 343.264 596.189 374.811C596.189 394.925 610.377 411.491 631.981 411.491C644.264 411.491 655.491 407.226 662.698 397.679H663.34L665.453 409.113H698.924C697.434 401.906 697.019 391.528 697.019 380.943V339.019H697.038ZM660.811 368.245C660.811 379.472 652.34 384.981 644.717 384.981C638.151 384.981 632.226 380.736 632.226 371C632.226 357.226 645.358 352.792 660.811 352.792V368.245ZM778.358 289.868L766.925 342.396C764.604 353.17 762.906 362.264 761.415 373.321H760.774C759.075 362.491 757.377 352.736 755.057 342.321L743.189 289.868H702.943L741.698 409.113H777.698L816.453 289.868H778.358ZM922.811 339.019C922.811 312.547 913.075 287.547 873.679 287.547C853.132 287.547 837.679 293.472 830.038 297.717L836.811 321.868C844.434 317.208 855.019 313.811 866.245 313.811C881.283 313.811 885.302 320.377 885.302 329.491C850.151 329.698 821.962 343.264 821.962 374.811C821.962 394.925 836.151 411.491 857.755 411.491C870.038 411.491 881.264 407.226 888.472 397.679H889.113L891.226 409.113H924.698C923.208 401.906 922.792 391.528 922.792 380.943V339.019H922.811ZM886.585 368.245C886.585 379.472 878.113 384.981 870.491 384.981C863.924 384.981 858 380.736 858 371C858 357.226 871.132 352.792 886.585 352.792V368.245Z" fill="black"/>
<path d="M321.623 73.6981C297.453 87.9811 283.245 115.038 301.396 141C329.792 181.604 381.774 141.453 405.528 175.415C413.717 187.113 412.075 204.453 395.868 215.792C382.566 225.094 354.528 219.491 370.83 238.717C380.509 250.132 399 236.868 409.472 229.547C426 217.981 445.321 222.698 467.717 207.019C502.453 182.717 504.547 147.604 484.415 118.83C469.906 98.0944 449.509 88.8114 410.264 92.3019C375.547 95.2453 365.057 91.7547 357.075 81.3396L357.434 81.3208L353.34 75.4528C345.887 60.9434 349.774 43.8868 365.34 33.0189C389.755 15.9434 406.132 28.0377 393.717 8.30189C381.962 -10.434 359.792 7.30191 348.774 15.283C328.434 29.9057 316.981 51.3396 321.623 73.6981ZM432.019 197.906C434.585 185.113 431.075 171.755 422.698 159.755C395.226 120.472 341.453 158.057 321 128.83C312.528 116.717 314.906 101.321 328.434 91.8491L328.83 91.566C347.925 122.868 375.038 123.698 409 121.415C443.698 119.151 452.962 124.642 462.755 138.642C473.094 153.415 471.038 175.321 450.547 189.642C445.528 193.151 439.019 195.868 432.019 197.906Z" fill="#FFCC00"/>
</svg>
