<svg width="927" height="500" viewBox="0 0 927 500" fill="none" xmlns="http://www.w3.org/2000/svg">
<g clip-path="url(#clip0_811_1216)">
<path d="M34.1132 456.076H28.3773C28.3773 453.34 27.8301 451.642 26.7169 451C25.6226 450.34 22.7735 450.019 18.2075 450.019C13.9433 450.019 11.2452 450.359 10.1131 451.076C8.96221 451.774 8.39618 453.434 8.39618 456.094C8.39618 460.094 10.3207 462.189 14.1698 462.396L18.7924 462.642L24.6414 462.943C31.7169 463.302 35.2641 467 35.2641 474.076C35.2641 478.453 34.0943 481.472 31.7358 483.113C29.3962 484.755 25.0943 485.566 18.849 485.566C12.4339 485.566 8.01881 484.792 5.60372 483.226C3.18862 481.679 1.98108 478.811 1.98108 474.66L2.01881 472.528H7.96221L7.99994 474.377C7.99994 476.943 8.66032 478.642 9.9622 479.509C11.2641 480.359 13.849 480.792 17.6792 480.792C22.3962 480.792 25.5094 480.34 26.9811 479.434C28.4716 478.547 29.2075 476.66 29.2075 473.792C29.2075 469.679 27.3396 467.623 23.6037 467.623C14.9056 467.623 9.18862 466.887 6.4339 465.396C3.69805 463.925 2.3207 460.868 2.3207 456.226C2.3207 451.849 3.41504 448.906 5.56598 447.453C7.73579 445.981 12.0565 445.264 18.5094 445.264C28.8679 445.264 34.0566 448.396 34.0566 454.642V456.076H34.1132ZM59.6603 445.264C66.8867 445.264 71.566 446.528 73.7358 449.038C75.8867 451.528 76.9622 457 76.9622 465.396C76.9622 473.811 75.8867 479.264 73.7358 481.774C71.566 484.283 66.8867 485.547 59.6603 485.547C52.4528 485.547 47.7735 484.283 45.6037 481.774C43.4528 479.264 42.3773 473.811 42.3773 465.396C42.3773 457 43.4528 451.547 45.6037 449.038C47.7735 446.528 52.4528 445.264 59.6603 445.264ZM59.6603 450.019C54.5849 450.019 51.4339 450.849 50.2264 452.491C49.0188 454.132 48.415 458.434 48.415 465.396C48.415 472.359 49.0188 476.66 50.2264 478.321C51.4339 479.962 54.5849 480.792 59.6603 480.792C64.7547 480.792 67.9056 479.962 69.132 478.321C70.3396 476.679 70.9433 472.377 70.9433 465.396C70.9433 458.434 70.3396 454.132 69.132 452.491C67.9056 450.849 64.7547 450.019 59.6603 450.019ZM112.755 470.849H118.491L118.528 472.981C118.528 481.359 113.038 485.547 102.075 485.547C95.0377 485.547 90.3773 484.226 88.132 481.585C85.8679 478.925 84.7358 473.491 84.7358 465.208C84.7358 457.453 85.8867 452.208 88.2075 449.415C90.5094 446.642 94.9056 445.264 101.358 445.264C107.717 445.264 112.038 446.208 114.358 448.076C116.679 449.943 117.83 453.453 117.83 458.604H112.094V457.585C112.094 454.547 111.34 452.547 109.849 451.528C108.34 450.528 105.358 450.019 100.887 450.019C96.5848 450.019 93.8113 450.962 92.5848 452.887C91.3584 454.792 90.7358 459.075 90.7358 465.736C90.7358 472.226 91.4339 476.358 92.849 478.132C94.2452 479.906 97.5282 480.792 102.679 480.792C107.057 480.792 109.811 480.208 110.981 479.038C112.17 477.887 112.755 475.151 112.755 470.849ZM132.226 429.113V435.547H126.491V429.113H132.226ZM132.226 445.849V484.962H126.491V445.849H132.226ZM169.491 473.132H175.34L175.377 474.566C175.377 478.623 174.151 481.472 171.679 483.094C169.207 484.717 164.887 485.528 158.698 485.528C151.491 485.528 146.774 484.208 144.528 481.585C142.283 478.962 141.151 473.434 141.151 465C141.151 457.208 142.283 451.962 144.547 449.283C146.811 446.623 151.245 445.283 157.849 445.283C165.057 445.283 169.774 446.434 172.019 448.755C174.245 451.075 175.377 455.943 175.377 463.396V466.472H147.226C147.226 472.642 147.887 476.566 149.207 478.264C150.528 479.962 153.623 480.811 158.491 480.811C163.094 480.811 166.094 480.396 167.472 479.604C168.849 478.792 169.547 477.057 169.547 474.377V473.132H169.491ZM169.491 462L169.453 460.151C169.453 455.925 168.755 453.189 167.358 451.906C165.981 450.642 162.981 450 158.358 450C153.717 450 150.698 450.736 149.34 452.226C147.962 453.698 147.264 456.962 147.264 461.981H169.491V462ZM217.075 429.113V484.962H211.34L211.641 479.887L211.472 479.849C209.679 483.642 205.472 485.528 198.906 485.528C192.906 485.528 188.811 484.057 186.623 481.151C184.434 478.226 183.321 472.792 183.321 464.83C183.321 457.491 184.415 452.396 186.623 449.547C188.849 446.698 192.792 445.264 198.49 445.264C205.623 445.264 209.868 447.113 211.207 450.793L211.34 450.717V429.113H217.075ZM199.849 450.019C195.623 450.019 192.811 451 191.415 452.943C190.038 454.906 189.34 458.849 189.34 464.792C189.34 471.321 190.019 475.623 191.415 477.698C192.792 479.755 195.641 480.792 200 480.792C204.698 480.792 207.774 479.755 209.207 477.698C210.623 475.623 211.34 471.17 211.34 464.245C211.34 458.66 210.566 454.887 209 452.925C207.377 451 204.34 450.019 199.849 450.019ZM233.113 456.811H227.434C227.434 452.264 228.472 449.208 230.528 447.623C232.585 446.057 236.623 445.283 242.623 445.283C249.132 445.283 253.547 446.245 255.83 448.17C258.113 450.075 259.264 453.736 259.264 459.151V484.981H253.528L253.981 480.755L253.849 480.717C251.679 483.943 247.245 485.547 240.547 485.547C230.679 485.547 225.736 481.585 225.736 473.642C225.736 468.943 226.83 465.66 229.038 463.868C231.245 462.057 235.245 461.17 241.038 461.17C247.906 461.17 252.038 462.528 253.377 465.226L253.509 465.189V460.434C253.509 455.943 252.887 453.057 251.66 451.736C250.434 450.415 247.755 449.755 243.604 449.755C236.566 449.755 233.038 451.736 233.038 455.698C233.075 455.849 233.094 456.226 233.113 456.811ZM242.34 465.604C237.943 465.604 235.094 466.057 233.755 467C232.434 467.925 231.774 469.925 231.774 472.962C231.774 476.132 232.434 478.226 233.736 479.245C235.038 480.264 237.698 480.774 241.717 480.774C249.792 480.774 253.83 478.321 253.83 473.415C253.83 470.321 253.057 468.245 251.491 467.189C249.906 466.132 246.849 465.604 242.34 465.604ZM302.566 429.113V484.962H296.83L297.132 479.887L296.962 479.849C295.17 483.642 290.962 485.528 284.396 485.528C278.396 485.528 274.302 484.057 272.113 481.151C269.924 478.226 268.811 472.792 268.811 464.83C268.811 457.491 269.906 452.396 272.113 449.547C274.34 446.698 278.283 445.264 283.981 445.264C291.113 445.264 295.358 447.113 296.698 450.793L296.83 450.717V429.113H302.566ZM285.34 450.019C281.113 450.019 278.302 451 276.906 452.943C275.528 454.906 274.83 458.849 274.83 464.792C274.83 471.321 275.509 475.623 276.906 477.698C278.283 479.755 281.132 480.792 285.49 480.792C290.189 480.792 293.264 479.755 294.698 477.698C296.113 475.623 296.83 471.17 296.83 464.245C296.83 458.66 296.057 454.887 294.491 452.925C292.868 451 289.83 450.019 285.34 450.019ZM339.849 473.132H345.698L345.736 474.566C345.736 478.623 344.509 481.472 342.038 483.094C339.566 484.717 335.245 485.528 329.057 485.528C321.849 485.528 317.132 484.208 314.887 481.585C312.641 478.962 311.509 473.434 311.509 465C311.509 457.208 312.641 451.962 314.906 449.283C317.17 446.623 321.604 445.283 328.207 445.283C335.415 445.283 340.132 446.434 342.377 448.755C344.604 451.075 345.736 455.943 345.736 463.396V466.472H317.585C317.585 472.642 318.245 476.566 319.566 478.264C320.887 479.962 323.981 480.811 328.83 480.811C333.434 480.811 336.434 480.396 337.811 479.604C339.189 478.792 339.887 477.057 339.887 474.377V473.132H339.849ZM339.849 462L339.811 460.151C339.811 455.925 339.113 453.189 337.717 451.906C336.34 450.642 333.34 450 328.717 450C324.075 450 321.057 450.736 319.698 452.226C318.321 453.698 317.623 456.962 317.623 461.981H339.849V462ZM408.377 429.113V484.962H402.641L402.943 479.887L402.774 479.849C400.981 483.642 396.774 485.528 390.207 485.528C384.207 485.528 380.113 484.057 377.924 481.151C375.736 478.226 374.623 472.792 374.623 464.83C374.623 457.491 375.717 452.396 377.924 449.547C380.151 446.698 384.094 445.264 389.792 445.264C396.924 445.264 401.17 447.113 402.509 450.793L402.641 450.717V429.113H408.377ZM391.17 450.019C386.943 450.019 384.132 451 382.736 452.943C381.358 454.906 380.66 458.849 380.66 464.792C380.66 471.321 381.34 475.623 382.736 477.698C384.113 479.755 386.962 480.792 391.321 480.792C396.019 480.792 399.094 479.755 400.528 477.698C401.943 475.623 402.66 471.17 402.66 464.245C402.66 458.66 401.887 454.887 400.321 452.925C398.698 451 395.66 450.019 391.17 450.019ZM445.679 473.132H451.528L451.566 474.566C451.566 478.623 450.34 481.472 447.868 483.094C445.396 484.717 441.075 485.528 434.887 485.528C427.679 485.528 422.962 484.208 420.717 481.585C418.472 478.962 417.34 473.434 417.34 465C417.34 457.208 418.472 451.962 420.736 449.283C423 446.623 427.434 445.283 434.038 445.283C441.245 445.283 445.962 446.434 448.207 448.755C450.434 451.075 451.566 455.943 451.566 463.396V466.472H423.415C423.415 472.642 424.075 476.566 425.396 478.264C426.717 479.962 429.811 480.811 434.679 480.811C439.283 480.811 442.283 480.396 443.66 479.604C445.038 478.792 445.736 477.057 445.736 474.377V473.132H445.679ZM445.679 462L445.641 460.151C445.641 455.925 444.943 453.189 443.547 451.906C442.17 450.642 439.17 450 434.547 450C429.906 450 426.887 450.736 425.528 452.226C424.151 453.698 423.453 456.962 423.453 461.981H445.679V462ZM513.434 445.849V484.962H507.717L508.113 479.849L508 479.717C506 483.585 501.736 485.528 495.226 485.528C486.075 485.528 481.509 480.981 481.509 471.849V445.849H487.245V471.868C487.245 475.415 487.83 477.792 489 479C490.17 480.208 492.472 480.811 495.924 480.811C500.415 480.811 503.509 479.925 505.208 478.132C506.887 476.34 507.717 473.057 507.717 468.302V445.849H513.434ZM554.358 456.076H548.623C548.623 453.34 548.075 451.642 546.962 451C545.868 450.34 543.019 450.019 538.434 450.019C534.17 450.019 531.472 450.359 530.34 451.076C529.189 451.774 528.623 453.434 528.623 456.094C528.623 460.094 530.547 462.189 534.396 462.396L539.019 462.642L544.868 462.943C551.943 463.302 555.49 467 555.49 474.076C555.49 478.453 554.321 481.472 551.962 483.113C549.623 484.755 545.321 485.566 539.075 485.566C532.66 485.566 528.245 484.792 525.83 483.226C523.415 481.679 522.207 478.811 522.207 474.66L522.245 472.528H528.189L528.226 474.377C528.226 476.943 528.887 478.642 530.189 479.509C531.491 480.359 534.075 480.792 537.906 480.792C542.623 480.792 545.736 480.34 547.207 479.434C548.698 478.547 549.434 476.66 549.434 473.792C549.434 469.679 547.566 467.623 543.83 467.623C535.132 467.623 529.415 466.887 526.66 465.396C523.924 463.925 522.547 460.868 522.547 456.226C522.547 451.849 523.641 448.906 525.792 447.453C527.962 445.981 532.283 445.264 538.736 445.264C549.094 445.264 554.283 448.396 554.283 454.642V456.076H554.358ZM595.66 445.849V484.962H589.943L590.34 479.849L590.226 479.717C588.226 483.585 583.962 485.528 577.453 485.528C568.302 485.528 563.736 480.981 563.736 471.849V445.849H569.472V471.868C569.472 475.415 570.057 477.792 571.226 479C572.396 480.208 574.698 480.811 578.151 480.811C582.641 480.811 585.736 479.925 587.415 478.132C589.094 476.34 589.924 473.057 589.924 468.302V445.849H595.66ZM612.207 456.811H606.528C606.528 452.264 607.566 449.208 609.623 447.623C611.679 446.057 615.717 445.283 621.717 445.283C628.226 445.283 632.641 446.245 634.925 448.17C637.208 450.075 638.358 453.736 638.358 459.151V484.981H632.641L633.094 480.755L632.962 480.717C630.792 483.943 626.358 485.547 619.66 485.547C609.792 485.547 604.849 481.585 604.849 473.642C604.849 468.943 605.962 465.66 608.151 463.868C610.358 462.057 614.358 461.17 620.151 461.17C627.019 461.17 631.151 462.528 632.49 465.226L632.623 465.189V460.434C632.623 455.943 632 453.057 630.774 451.736C629.547 450.415 626.868 449.755 622.717 449.755C615.679 449.755 612.151 451.736 612.151 455.698C612.17 455.849 612.189 456.226 612.207 456.811ZM621.434 465.604C617.038 465.604 614.189 466.057 612.849 467C611.528 467.925 610.868 469.925 610.868 472.962C610.868 476.132 611.528 478.226 612.83 479.245C614.132 480.264 616.792 480.774 620.811 480.774C628.887 480.774 632.925 478.321 632.925 473.415C632.925 470.321 632.151 468.245 630.585 467.189C629 466.132 625.962 465.604 621.434 465.604ZM628.906 429.679L631.849 433.679L619.774 441.075L617.811 438.038L628.906 429.679ZM649.528 445.849H655.264L654.698 450.34L654.83 450.472C657.094 446.792 660.83 444.962 666.038 444.962C673.226 444.962 676.83 448.679 676.83 456.094L676.792 458.792H671.151L671.264 457.811C671.34 456.774 671.396 456.075 671.396 455.717C671.396 451.717 669.226 449.717 664.849 449.717C658.472 449.717 655.283 453.66 655.283 461.528V484.981H649.547V445.849H649.528ZM688.075 429.113V435.547H682.358V429.113H688.075ZM688.075 445.849V484.962H682.358V445.849H688.075ZM714.283 445.264C721.509 445.264 726.189 446.528 728.358 449.038C730.509 451.528 731.585 457 731.585 465.396C731.585 473.811 730.509 479.264 728.358 481.774C726.189 484.283 721.509 485.547 714.283 485.547C707.075 485.547 702.396 484.283 700.226 481.774C698.075 479.264 697 473.811 697 465.396C697 457 698.075 451.547 700.226 449.038C702.396 446.528 707.075 445.264 714.283 445.264ZM714.283 450.019C709.208 450.019 706.057 450.849 704.849 452.491C703.641 454.132 703.038 458.434 703.038 465.396C703.038 472.359 703.641 476.66 704.849 478.321C706.057 479.962 709.208 480.792 714.283 480.792C719.377 480.792 722.528 479.962 723.755 478.321C724.962 476.679 725.566 472.377 725.566 465.396C725.566 458.434 724.962 454.132 723.755 452.491C722.547 450.849 719.377 450.019 714.283 450.019ZM770.83 456.076H765.094C765.094 453.34 764.547 451.642 763.434 451C762.34 450.34 759.49 450.019 754.906 450.019C750.641 450.019 747.943 450.359 746.811 451.076C745.66 451.774 745.094 453.434 745.094 456.094C745.094 460.094 747.019 462.189 750.868 462.396L755.49 462.642L761.34 462.943C768.415 463.302 771.962 467 771.962 474.076C771.962 478.453 770.792 481.472 768.434 483.113C766.094 484.755 761.792 485.566 755.547 485.566C749.132 485.566 744.717 484.792 742.302 483.226C739.887 481.679 738.679 478.811 738.679 474.66L738.717 472.528H744.66L744.698 474.377C744.698 476.943 745.358 478.642 746.66 479.509C747.962 480.359 750.547 480.792 754.377 480.792C759.094 480.792 762.208 480.34 763.679 479.434C765.17 478.547 765.906 476.66 765.906 473.792C765.906 469.679 764.038 467.623 760.302 467.623C751.604 467.623 745.887 466.887 743.132 465.396C740.396 463.925 739.019 460.868 739.019 456.226C739.019 451.849 740.113 448.906 742.264 447.453C744.434 445.981 748.736 445.264 755.208 445.264C765.566 445.264 770.755 448.396 770.755 454.642V456.076H770.83ZM806.509 429.113V435.547H800.773V429.113H806.509ZM806.509 445.849V488.566V490.245C806.509 496.717 803.83 499.943 798.453 499.943C797.679 499.943 796.755 499.849 795.717 499.66V495.604C796.038 495.547 796.264 495.528 796.377 495.528L797.113 495.491L799.472 494.717C800.358 493.981 800.792 491.943 800.792 488.585V445.849H806.509ZM822.717 456.811H817.038C817.038 452.264 818.075 449.208 820.132 447.623C822.189 446.057 826.226 445.283 832.226 445.283C838.736 445.283 843.151 446.245 845.434 448.17C847.717 450.075 848.868 453.736 848.868 459.151V484.981H843.132L843.585 480.755L843.453 480.717C841.283 483.943 836.849 485.547 830.151 485.547C820.283 485.547 815.34 481.585 815.34 473.642C815.34 468.943 816.453 465.66 818.641 463.868C820.849 462.057 824.849 461.17 830.641 461.17C837.509 461.17 841.641 462.528 842.981 465.226L843.113 465.189V460.434C843.113 455.943 842.491 453.057 841.264 451.736C840.038 450.415 837.358 449.755 833.207 449.755C826.17 449.755 822.641 451.736 822.641 455.698C822.66 455.849 822.679 456.226 822.717 456.811ZM831.924 465.604C827.528 465.604 824.679 466.057 823.34 467C822.019 467.925 821.358 469.925 821.358 472.962C821.358 476.132 822.019 478.226 823.321 479.245C824.623 480.264 827.283 480.774 831.302 480.774C839.377 480.774 843.415 478.321 843.415 473.415C843.415 470.321 842.641 468.245 841.075 467.189C839.509 466.132 836.453 465.604 831.924 465.604ZM888.434 445.849L875.34 484.962H867.113L854.151 445.849H860.038L866.943 467.132L869.113 473.792L870.132 477.151L871.189 480.509H871.358L872.34 477.189L873.34 473.83L875.415 467.189L882.057 445.83H888.434V445.849ZM899.151 456.811H893.472C893.472 452.264 894.509 449.208 896.566 447.623C898.623 446.057 902.66 445.283 908.66 445.283C915.17 445.283 919.585 446.245 921.868 448.17C924.151 450.075 925.302 453.736 925.302 459.151V484.981H919.585L920.038 480.755L919.906 480.717C917.736 483.943 913.302 485.547 906.604 485.547C896.736 485.547 891.792 481.585 891.792 473.642C891.792 468.943 892.887 465.66 895.094 463.868C897.302 462.057 901.302 461.17 907.094 461.17C913.962 461.17 918.094 462.528 919.434 465.226L919.566 465.189V460.434C919.566 455.943 918.943 453.057 917.717 451.736C916.49 450.415 913.811 449.755 909.66 449.755C902.623 449.755 899.094 451.736 899.094 455.698C899.113 455.849 899.132 456.226 899.151 456.811ZM908.377 465.604C903.981 465.604 901.132 466.057 899.792 467C898.472 467.925 897.811 469.925 897.811 472.962C897.811 476.132 898.472 478.226 899.773 479.245C901.075 480.264 903.736 480.774 907.755 480.774C915.83 480.774 919.868 478.321 919.868 473.415C919.868 470.321 919.094 468.245 917.528 467.189C915.943 466.132 912.887 465.604 908.377 465.604Z" fill="#E3E3E3"/>
<path d="M61.9811 313.698C50.4528 312.83 44.132 312.396 44.132 299.34C44.132 290.208 46.0943 285.415 69.5849 285.415C86.9811 285.415 93.9433 285.415 93.9433 302.17H135.717V295.434C135.717 250.396 105.264 249.755 69.5849 249.755C26.9433 249.755 0.622587 252.793 0.622587 299.585C0.622587 346.377 24.1132 346.151 64.3584 348.981L73.9245 349.642C94.3773 350.943 96.7735 350.736 96.7735 364.868C96.7735 378.566 90.0377 379.887 69.5849 379.887C48.2641 379.887 42.1698 378.151 42.1698 361.17H0.415039C0.415039 414.736 28.0377 415.604 69.6037 415.604C141.396 415.604 140.321 389.019 140.321 362.038C140.321 324.623 128.358 318.528 80.0566 315.038L61.9811 313.698ZM456.736 312.226H468.17C474.943 312.226 475.472 315.906 475.472 326.698C475.472 337.359 475.396 343.453 468.868 343.453H456.736V312.226ZM456.396 368.811H469.17C483 368.811 488.868 364.755 488.868 326.679C488.868 298.774 484.547 286.83 469.17 286.83H456.736V251.019H413.226V356.981C413.226 376.132 406.924 377.642 388.434 377.642C370.151 377.642 359.717 377.415 359.717 358.925V251.019H316.207V359.793C316.207 398.962 323.17 415.528 388.434 415.528C432.792 415.547 453.604 405.038 456.396 368.811ZM226.396 415.547C270.566 415.547 301.887 405.943 301.887 355.679V309.547C301.887 259.283 270.566 249.717 226.396 249.717C182.226 249.717 150.906 259.283 150.906 309.547V355.679C150.906 405.943 182.226 415.547 226.396 415.547ZM226.396 377.66C203.774 377.66 196.377 375.264 195.717 350.906V314.132C196.377 289.981 203.774 287.585 226.396 287.585C249.019 287.585 257.075 289.981 257.075 314.132V350.906C257.075 375.264 249.019 377.66 226.396 377.66Z" fill="#E3E3E3"/>
<path d="M579.264 245.396H541.981V351.943C541.981 374.604 533.302 379.906 521.019 379.906C515.094 379.906 509.792 379.057 505.547 377.792L501.906 408.302C507.66 410.453 516.981 411.509 524.811 411.509C556.151 411.509 579.245 399.189 579.245 351.528V245.396H579.264ZM697.453 339.019C697.453 312.547 687.717 287.547 648.321 287.547C627.774 287.547 612.321 293.472 604.679 297.717L611.453 321.868C619.075 317.208 629.66 313.811 640.887 313.811C655.925 313.811 659.943 320.377 659.943 329.491C624.792 329.698 596.604 343.264 596.604 374.811C596.604 394.925 610.792 411.491 632.396 411.491C644.679 411.491 655.906 407.226 663.113 397.679H663.755L665.868 409.113H699.34C697.849 401.906 697.434 391.528 697.434 380.943V339.019H697.453ZM661.226 368.245C661.226 379.472 652.755 384.981 645.132 384.981C638.566 384.981 632.641 380.736 632.641 371C632.641 357.226 645.774 352.792 661.226 352.792V368.245ZM778.774 289.868L767.34 342.396C765.019 353.17 763.321 362.264 761.83 373.321H761.189C759.491 362.491 757.792 352.736 755.472 342.321L743.604 289.868H703.358L742.113 409.113H778.113L816.868 289.868H778.774ZM923.226 339.019C923.226 312.547 913.49 287.547 874.094 287.547C853.547 287.547 838.094 293.472 830.453 297.717L837.226 321.868C844.849 317.208 855.434 313.811 866.66 313.811C881.698 313.811 885.717 320.377 885.717 329.491C850.566 329.698 822.377 343.264 822.377 374.811C822.377 394.925 836.566 411.491 858.17 411.491C870.453 411.491 881.679 407.226 888.887 397.679H889.528L891.641 409.113H925.113C923.623 401.906 923.208 391.528 923.208 380.943V339.019H923.226ZM887 368.245C887 379.472 878.528 384.981 870.906 384.981C864.34 384.981 858.415 380.736 858.415 371C858.415 357.226 871.547 352.792 887 352.792V368.245Z" fill="#E3E3E3"/>
<path d="M322.038 73.6981C297.868 87.9811 283.66 115.038 301.811 141C330.208 181.604 382.189 141.453 405.943 175.415C414.132 187.113 412.491 204.453 396.283 215.792C382.981 225.094 354.943 219.491 371.245 238.717C380.925 250.132 399.415 236.868 409.887 229.547C426.415 217.981 445.736 222.698 468.132 207.019C502.868 182.717 504.962 147.604 484.83 118.83C470.321 98.0944 449.924 88.8114 410.679 92.3019C375.962 95.2453 365.472 91.7547 357.491 81.3396L357.849 81.3208L353.755 75.4528C346.302 60.9434 350.189 43.8868 365.755 33.0189C390.17 15.9434 406.547 28.0377 394.132 8.30189C382.377 -10.434 360.208 7.30191 349.189 15.283C328.849 29.9057 317.396 51.3396 322.038 73.6981ZM432.434 197.906C435 185.113 431.491 171.755 423.113 159.755C395.641 120.472 341.868 158.057 321.415 128.83C312.943 116.717 315.321 101.321 328.849 91.8491L329.245 91.566C348.34 122.868 375.453 123.698 409.415 121.415C444.113 119.151 453.377 124.642 463.17 138.642C473.509 153.415 471.453 175.321 450.962 189.642C445.943 193.151 439.434 195.868 432.434 197.906Z" fill="#E3E3E3"/>
</g>
<defs>
<clipPath id="clip0_811_1216">
<rect width="926.415" height="500" fill="white" transform="translate(0.415039)"/>
</clipPath>
</defs>
</svg>
