<svg width="207" height="416" viewBox="0 0 207 416" fill="none" xmlns="http://www.w3.org/2000/svg">
<path fill-rule="evenodd" clip-rule="evenodd" d="M175.962 312.226H164.528V343.453H176.66C183.189 343.453 183.264 337.359 183.264 326.698C183.264 315.906 182.736 312.226 175.962 312.226ZM176.962 368.811H164.189C161.396 405.038 140.585 415.547 96.2264 415.528C30.9622 415.528 24 398.962 24 359.792V251.019H67.5094V358.925C67.5094 377.415 77.9434 377.642 96.2264 377.642C114.717 377.642 121.019 376.132 121.019 356.981V251.019H164.528V286.83H176.962C192.34 286.83 196.66 298.774 196.66 326.679C196.66 364.755 190.792 368.811 176.962 368.811Z" fill="#E3E3E3"/>
<path d="M29.8302 73.6981C5.66037 87.9811 -8.54717 115.038 9.60377 141C38 181.604 89.9811 141.453 113.736 175.415C121.925 187.113 120.283 204.453 104.075 215.792C90.7736 225.094 62.7359 219.491 79.0377 238.717C88.717 250.132 107.208 236.868 117.679 229.547C134.208 217.981 153.528 222.698 175.925 207.019C210.66 182.717 212.755 147.604 192.623 118.83C178.113 98.0944 157.717 88.8114 118.472 92.3019C83.7547 95.2453 73.2641 91.7547 65.283 81.3396L65.6415 81.3208L61.5472 75.4528C54.0943 60.9434 57.9811 43.8868 73.5472 33.0189C97.9623 15.9434 114.34 28.0377 101.925 8.30189C90.1698 -10.434 68 7.30191 56.9811 15.283C36.6415 29.9057 25.1887 51.3396 29.8302 73.6981ZM140.226 197.906C142.792 185.113 139.283 171.755 130.906 159.755C103.434 120.472 49.6604 158.057 29.2075 128.83C20.7358 116.717 23.1132 101.321 36.6415 91.8491L37.0377 91.566C56.1321 122.868 83.2453 123.698 117.208 121.415C151.906 119.151 161.17 124.642 170.962 138.642C181.302 153.415 179.245 175.321 158.755 189.642C153.736 193.151 147.226 195.868 140.226 197.906Z" fill="#E3E3E3"/>
</svg>
