<svg width="206" height="416" viewBox="0 0 206 416" fill="none" xmlns="http://www.w3.org/2000/svg">
<g clip-path="url(#clip0_811_1211)">
<path fill-rule="evenodd" clip-rule="evenodd" d="M175.547 312.226H164.113V343.453H176.245C182.773 343.453 182.849 337.359 182.849 326.698C182.849 315.906 182.321 312.226 175.547 312.226ZM176.547 368.811H163.773C160.981 405.038 140.17 415.547 95.8111 415.528C30.547 415.528 23.5847 398.962 23.5847 359.792V251.019H67.0941V358.925C67.0941 377.415 77.5281 377.642 95.8111 377.642C114.302 377.642 120.604 376.132 120.604 356.981V251.019H164.113V286.83H176.547C191.924 286.83 196.245 298.774 196.245 326.679C196.245 364.755 190.377 368.811 176.547 368.811Z" fill="#C00D0D"/>
<path d="M29.415 73.6981C5.24521 87.9811 -8.96234 115.038 9.18861 141C37.5848 181.604 89.5659 141.453 113.321 175.415C121.509 187.113 119.868 204.453 103.66 215.792C90.3584 225.094 62.3207 219.491 78.6226 238.717C88.3018 250.132 106.792 236.868 117.264 229.547C133.792 217.981 153.113 222.698 175.509 207.019C210.245 182.717 212.34 147.604 192.207 118.83C177.698 98.0944 157.302 88.8114 118.057 92.3019C83.3396 95.2453 72.849 91.7547 64.8678 81.3396L65.2263 81.3208L61.132 75.4528C53.6792 60.9434 57.566 43.8868 73.132 33.0189C97.5471 15.9434 113.924 28.0377 101.509 8.30189C89.7547 -10.434 67.5848 7.30191 56.566 15.283C36.2263 29.9057 24.7735 51.3396 29.415 73.6981ZM139.811 197.906C142.377 185.113 138.868 171.755 130.49 159.755C103.019 120.472 49.2452 158.057 28.7924 128.83C20.3207 116.717 22.698 101.321 36.2263 91.8491L36.6226 91.566C55.7169 122.868 82.8301 123.698 116.792 121.415C151.49 119.151 160.755 124.642 170.547 138.642C180.887 153.415 178.83 175.321 158.34 189.642C153.321 193.151 146.811 195.868 139.811 197.906Z" fill="#FFCC00"/>
</g>
<defs>
<clipPath id="clip0_811_1211">
<rect width="206" height="416" fill="white"/>
</clipPath>
</defs>
</svg>
