<svg width="926" height="416" viewBox="0 0 926 416" fill="none" xmlns="http://www.w3.org/2000/svg">
<g clip-path="url(#clip0_811_1215)">
<path d="M61.9811 313.698C50.4528 312.83 44.132 312.396 44.132 299.34C44.132 290.208 46.0943 285.415 69.5849 285.415C86.9811 285.415 93.9433 285.415 93.9433 302.17H135.717V295.434C135.717 250.396 105.264 249.755 69.5849 249.755C26.9433 249.755 0.622587 252.793 0.622587 299.585C0.622587 346.377 24.1132 346.151 64.3584 348.981L73.9245 349.642C94.3773 350.943 96.7735 350.736 96.7735 364.868C96.7735 378.566 90.0377 379.887 69.5849 379.887C48.2641 379.887 42.1698 378.151 42.1698 361.17H0.415039C0.415039 414.736 28.0377 415.604 69.6037 415.604C141.396 415.604 140.321 389.019 140.321 362.038C140.321 324.623 128.358 318.528 80.0566 315.038L61.9811 313.698ZM456.736 312.226H468.17C474.943 312.226 475.472 315.906 475.472 326.698C475.472 337.359 475.396 343.453 468.868 343.453H456.736V312.226ZM456.396 368.811H469.17C483 368.811 488.868 364.755 488.868 326.679C488.868 298.774 484.547 286.83 469.17 286.83H456.736V251.019H413.226V356.981C413.226 376.132 406.924 377.642 388.434 377.642C370.151 377.642 359.717 377.415 359.717 358.925V251.019H316.207V359.793C316.207 398.962 323.17 415.528 388.434 415.528C432.792 415.547 453.604 405.038 456.396 368.811ZM226.396 415.547C270.566 415.547 301.887 405.943 301.887 355.679V309.547C301.887 259.283 270.566 249.717 226.396 249.717C182.226 249.717 150.906 259.283 150.906 309.547V355.679C150.906 405.943 182.226 415.547 226.396 415.547ZM226.396 377.66C203.774 377.66 196.377 375.264 195.717 350.906V314.132C196.377 289.981 203.774 287.585 226.396 287.585C249.019 287.585 257.075 289.981 257.075 314.132V350.906C257.075 375.264 249.019 377.66 226.396 377.66Z" fill="#E3E3E3"/>
<path d="M579.264 245.396H541.981V351.943C541.981 374.604 533.302 379.906 521.019 379.906C515.094 379.906 509.792 379.057 505.547 377.792L501.906 408.302C507.66 410.453 516.981 411.509 524.811 411.509C556.151 411.509 579.245 399.189 579.245 351.528V245.396H579.264ZM697.453 339.019C697.453 312.547 687.717 287.547 648.321 287.547C627.774 287.547 612.321 293.472 604.679 297.717L611.453 321.868C619.075 317.208 629.66 313.811 640.887 313.811C655.925 313.811 659.943 320.377 659.943 329.491C624.792 329.698 596.604 343.264 596.604 374.811C596.604 394.925 610.792 411.491 632.396 411.491C644.679 411.491 655.906 407.226 663.113 397.679H663.755L665.868 409.113H699.34C697.849 401.906 697.434 391.528 697.434 380.943V339.019H697.453ZM661.226 368.245C661.226 379.472 652.755 384.981 645.132 384.981C638.566 384.981 632.641 380.736 632.641 371C632.641 357.226 645.774 352.792 661.226 352.792V368.245ZM778.774 289.868L767.34 342.396C765.019 353.17 763.321 362.264 761.83 373.321H761.189C759.491 362.491 757.792 352.736 755.472 342.321L743.604 289.868H703.358L742.113 409.113H778.113L816.868 289.868H778.774ZM923.226 339.019C923.226 312.547 913.49 287.547 874.094 287.547C853.547 287.547 838.094 293.472 830.453 297.717L837.226 321.868C844.849 317.208 855.434 313.811 866.66 313.811C881.698 313.811 885.717 320.377 885.717 329.491C850.566 329.698 822.377 343.264 822.377 374.811C822.377 394.925 836.566 411.491 858.17 411.491C870.453 411.491 881.679 407.226 888.887 397.679H889.528L891.641 409.113H925.113C923.623 401.906 923.208 391.528 923.208 380.943V339.019H923.226ZM887 368.245C887 379.472 878.528 384.981 870.906 384.981C864.34 384.981 858.415 380.736 858.415 371C858.415 357.226 871.547 352.792 887 352.792V368.245Z" fill="#E3E3E3"/>
<path d="M322.038 73.6981C297.868 87.9811 283.66 115.038 301.811 141C330.208 181.604 382.189 141.453 405.943 175.415C414.132 187.113 412.491 204.453 396.283 215.792C382.981 225.094 354.943 219.491 371.245 238.717C380.925 250.132 399.415 236.868 409.887 229.547C426.415 217.981 445.736 222.698 468.132 207.019C502.868 182.717 504.962 147.604 484.83 118.83C470.321 98.0944 449.924 88.8114 410.679 92.3019C375.962 95.2453 365.472 91.7547 357.491 81.3396L357.849 81.3208L353.755 75.4528C346.302 60.9434 350.189 43.8868 365.755 33.0189C390.17 15.9434 406.547 28.0377 394.132 8.30189C382.377 -10.434 360.208 7.30191 349.189 15.283C328.849 29.9057 317.396 51.3396 322.038 73.6981ZM432.434 197.906C435 185.113 431.491 171.755 423.113 159.755C395.641 120.472 341.868 158.057 321.415 128.83C312.943 116.717 315.321 101.321 328.849 91.8491L329.245 91.566C348.34 122.868 375.453 123.698 409.415 121.415C444.113 119.151 453.377 124.642 463.17 138.642C473.509 153.415 471.453 175.321 450.962 189.642C445.943 193.151 439.434 195.868 432.434 197.906Z" fill="#E3E3E3"/>
</g>
<defs>
<clipPath id="clip0_811_1215">
<rect width="925" height="416" fill="white" transform="translate(0.415039)"/>
</clipPath>
</defs>
</svg>
