<svg width="925" height="416" viewBox="0 0 925 416" fill="none" xmlns="http://www.w3.org/2000/svg">
<g clip-path="url(#clip0_811_1212)">
<path d="M61.566 313.698C50.0377 312.83 43.717 312.396 43.717 299.34C43.717 290.208 45.6793 285.415 69.1698 285.415C86.566 285.415 93.5283 285.415 93.5283 302.17H135.302V295.434C135.302 250.396 104.849 249.755 69.1698 249.755C26.5283 249.755 0.207548 252.793 0.207548 299.585C0.207548 346.377 23.6981 346.151 63.9434 348.981L73.5094 349.642C93.9623 350.943 96.3585 350.736 96.3585 364.868C96.3585 378.566 89.6227 379.887 69.1698 379.887C47.8491 379.887 41.7547 378.151 41.7547 361.17H0C0 414.736 27.6226 415.604 69.1887 415.604C140.981 415.604 139.906 389.019 139.906 362.038C139.906 324.623 127.943 318.528 79.6415 315.038L61.566 313.698ZM456.321 312.226H467.755C474.528 312.226 475.057 315.906 475.057 326.698C475.057 337.359 474.981 343.453 468.453 343.453H456.321V312.226ZM455.981 368.811H468.755C482.585 368.811 488.453 364.755 488.453 326.679C488.453 298.774 484.132 286.83 468.755 286.83H456.321V251.019H412.811V356.981C412.811 376.132 406.509 377.642 388.019 377.642C369.736 377.642 359.302 377.415 359.302 358.925V251.019H315.792V359.793C315.792 398.962 322.755 415.528 388.019 415.528C432.377 415.547 453.189 405.038 455.981 368.811ZM225.981 415.547C270.151 415.547 301.472 405.943 301.472 355.679V309.547C301.472 259.283 270.151 249.717 225.981 249.717C181.811 249.717 150.491 259.283 150.491 309.547V355.679C150.491 405.943 181.811 415.547 225.981 415.547ZM225.981 377.66C203.359 377.66 195.962 375.264 195.302 350.906V314.132C195.962 289.981 203.359 287.585 225.981 287.585C248.604 287.585 256.66 289.981 256.66 314.132V350.906C256.66 375.264 248.604 377.66 225.981 377.66Z" fill="#C00D0D"/>
<path d="M578.849 245.396H541.566V351.943C541.566 374.604 532.887 379.906 520.604 379.906C514.679 379.906 509.377 379.057 505.132 377.792L501.491 408.302C507.245 410.453 516.566 411.509 524.396 411.509C555.736 411.509 578.83 399.189 578.83 351.528V245.396H578.849ZM697.038 339.019C697.038 312.547 687.302 287.547 647.906 287.547C627.359 287.547 611.906 293.472 604.264 297.717L611.038 321.868C618.66 317.208 629.245 313.811 640.472 313.811C655.509 313.811 659.528 320.377 659.528 329.491C624.377 329.698 596.189 343.264 596.189 374.811C596.189 394.925 610.377 411.491 631.981 411.491C644.264 411.491 655.491 407.226 662.698 397.679H663.34L665.453 409.113H698.925C697.434 401.906 697.019 391.528 697.019 380.943V339.019H697.038ZM660.811 368.245C660.811 379.472 652.34 384.981 644.717 384.981C638.151 384.981 632.226 380.736 632.226 371C632.226 357.226 645.359 352.792 660.811 352.792V368.245ZM778.359 289.868L766.925 342.396C764.604 353.17 762.906 362.264 761.415 373.321H760.774C759.075 362.491 757.377 352.736 755.057 342.321L743.189 289.868H702.943L741.698 409.113H777.698L816.453 289.868H778.359ZM922.811 339.019C922.811 312.547 913.075 287.547 873.679 287.547C853.132 287.547 837.679 293.472 830.038 297.717L836.811 321.868C844.434 317.208 855.019 313.811 866.245 313.811C881.283 313.811 885.302 320.377 885.302 329.491C850.151 329.698 821.962 343.264 821.962 374.811C821.962 394.925 836.151 411.491 857.755 411.491C870.038 411.491 881.264 407.226 888.472 397.679H889.113L891.226 409.113H924.698C923.208 401.906 922.792 391.528 922.792 380.943V339.019H922.811ZM886.585 368.245C886.585 379.472 878.113 384.981 870.491 384.981C863.925 384.981 858 380.736 858 371C858 357.226 871.132 352.792 886.585 352.792V368.245Z" fill="black"/>
<path d="M321.623 73.6981C297.453 87.9811 283.245 115.038 301.396 141C329.792 181.604 381.774 141.453 405.528 175.415C413.717 187.113 412.075 204.453 395.868 215.792C382.566 225.094 354.528 219.491 370.83 238.717C380.509 250.132 399 236.868 409.472 229.547C426 217.981 445.321 222.698 467.717 207.019C502.453 182.717 504.547 147.604 484.415 118.83C469.906 98.0944 449.509 88.8114 410.264 92.3019C375.547 95.2453 365.057 91.7547 357.075 81.3396L357.434 81.3208L353.34 75.4528C345.887 60.9434 349.774 43.8868 365.34 33.0189C389.755 15.9434 406.132 28.0377 393.717 8.30189C381.962 -10.434 359.792 7.30191 348.774 15.283C328.434 29.9057 316.981 51.3396 321.623 73.6981ZM432.019 197.906C434.585 185.113 431.075 171.755 422.698 159.755C395.226 120.472 341.453 158.057 321 128.83C312.528 116.717 314.906 101.321 328.434 91.8491L328.83 91.566C347.925 122.868 375.038 123.698 409 121.415C443.698 119.151 452.962 124.642 462.755 138.642C473.094 153.415 471.038 175.321 450.547 189.642C445.528 193.151 439.019 195.868 432.019 197.906Z" fill="#FFCC00"/>
</g>
<defs>
<clipPath id="clip0_811_1212">
<rect width="925" height="416" fill="white"/>
</clipPath>
</defs>
</svg>
